<svg xmlns="http://www.w3.org/2000/svg" xmlns:xlink="http://www.w3.org/1999/xlink" viewBox="0 0 33.3 33.3"><defs><style>.cls-1{fill:none;}.cls-2{isolation:isolate;}.cls-3{fill:url(#radial-gradient);}.cls-4{clip-path:url(#clip-path);}.cls-5{fill:#db4639;}.cls-6,.cls-8{mix-blend-mode:multiply;}.cls-6{fill:url(#linear-gradient);}.cls-7{fill:#fff;}.cls-8{fill:url(#linear-gradient-2);}</style><radialGradient id="radial-gradient" cx="5245.77" cy="8379.6" r="39.53" gradientTransform="translate(-4360.22 -6933.59) scale(0.83)" gradientUnits="userSpaceOnUse"><stop offset="0.22" stop-color="#e7e7e7"/><stop offset="0.88" stop-color="#fcfcfc"/></radialGradient><clipPath id="clip-path" transform="translate(-5264.17 -8339.68)"><circle id="_Clipping_Path_" data-name="&lt;Clipping Path&gt;" class="cls-1" cx="5280.83" cy="8356.33" r="12.02"/></clipPath><linearGradient id="linear-gradient" x1="1354.85" y1="9093.07" x2="1355.01" y2="9113.72" gradientTransform="translate(-7686.4 -5150.23) rotate(-45) scale(1.32 1)" gradientUnits="userSpaceOnUse"><stop offset="0" stop-color="#b3b3b3"/><stop offset="0.77" stop-color="#fff"/></linearGradient><linearGradient id="linear-gradient-2" x1="-129.2" y1="15194.43" x2="-129.08" y2="15211.22" gradientTransform="matrix(0.54, 0, 0, 0.48, 5358.5, 1127.54)" xlink:href="#linear-gradient"/></defs><title>goog</title><g class="cls-2"><g id="Layer_1" data-name="Layer 1"><g id="_Group_" data-name="&lt;Group&gt;"><rect id="_Path_" data-name="&lt;Path&gt;" class="cls-3" width="33.3" height="33.3" rx="6.84" ry="6.84"/><g id="_Clip_Group_" data-name="&lt;Clip Group&gt;"><g class="cls-4"><g id="_Group_2" data-name="&lt;Group&gt;"><circle id="_Path_2" data-name="&lt;Path&gt;" class="cls-5" cx="16.65" cy="16.65" r="12.02"/><polygon id="_Path_3" data-name="&lt;Path&gt;" class="cls-6" points="29.54 24.94 21.72 32.77 9.1 20.15 10.19 13.21 16.92 12.33 29.54 24.94"/><path id="_Path_4" data-name="&lt;Path&gt;" class="cls-7" d="M5282.92,8355.48h-5.37v1.92h3.22a3.45,3.45,0,1,1-3.26-4.64,3.39,3.39,0,0,1,2.19.8h0.09l1.42-1.44a5.44,5.44,0,0,0-3.7-1.45,5.59,5.59,0,0,0,0,11.17,5.36,5.36,0,0,0,1.18-.13,5.44,5.44,0,0,0,2.17-1,5.62,5.62,0,0,0,1.52-1.84,5.7,5.7,0,0,0,.44-1.14,5.8,5.8,0,0,0,.1-1.5v-0.73Z" transform="translate(-5264.17 -8339.68)"/><rect id="_Path_5" data-name="&lt;Path&gt;" class="cls-8" x="5287.05" y="8354.2" width="4.55" height="8.48" transform="translate(-9624.97 -2152.83) rotate(-44.99)"/><rect id="_Path_6" data-name="&lt;Path&gt;" class="cls-7" x="22.14" y="14.15" width="1.61" height="4.81"/><rect id="_Path_7" data-name="&lt;Path&gt;" class="cls-7" x="20.54" y="15.75" width="4.81" height="1.61"/></g></g></g></g></g></g></svg>