<svg id="Layer_1" data-name="Layer 1" xmlns="http://www.w3.org/2000/svg" xmlns:xlink="http://www.w3.org/1999/xlink" viewBox="0 0 755.18 471.36"><defs><style>.cls-1{fill:#283544;}.cls-2,.cls-7{fill:#fff;}.cls-3{fill:#e6e6e6;}.cls-4{fill:#0b385e;}.cls-5{fill:#39b54a;}.cls-6{fill:#2872f2;}.cls-7{stroke:#e6e6e6;}.cls-12,.cls-15,.cls-20,.cls-7{stroke-miterlimit:10;}.cls-8{font-size:15.72px;}.cls-13,.cls-17,.cls-8{font-family:Akkurat;}.cls-9{fill:url(#linear-gradient-2);}.cls-10{font-size:11.53px;}.cls-10,.cls-14,.cls-18,.cls-19{font-family:Akkurat Light;}.cls-11{fill:#eff4f7;}.cls-12,.cls-15,.cls-20{fill:none;}.cls-12{stroke:#ccc;}.cls-13,.cls-14{font-size:13.75px;}.cls-13{fill:#1a1a1a;}.cls-14{fill:gray;}.cls-15{stroke-width:4px;stroke:#2872f2;}.cls-16{fill:#e4eef4;}.cls-17,.cls-18,.cls-19{font-size:9.98px;}.cls-19{fill:#0071bc;}.cls-20{stroke:#f2f2f2;}</style><linearGradient id="linear-gradient" y1="72.34" x2="29.11" y2="72.34" gradientUnits="userSpaceOnUse"><stop offset="0" stop-color="#47bcf1"/><stop offset="1" stop-color="#66dce1"/></linearGradient><linearGradient id="linear-gradient-2" x1="307.35" y1="38.75" x2="443.29" y2="38.75" xlink:href="#linear-gradient"/><linearGradient id="linear-gradient-3" x1="63.18" y1="103.62" x2="126.18" y2="103.62" xlink:href="#linear-gradient"/></defs><title>dashboard</title><g id="_Group_" data-name="&lt;Group&gt;"><g id="_Group_2" data-name="&lt;Group&gt;"><rect id="_Rectangle_" data-name="&lt;Rectangle&gt;" class="cls-1" width="29.11" height="471.36"/><g id="_Group_3" data-name="&lt;Group&gt;"><g id="_Group_4" data-name="&lt;Group&gt;"><path id="_Compound_Path_" data-name="&lt;Compound Path&gt;" class="cls-2" d="M586.63,2000.81l1.16-1.16v-1.83l3.72,3.72h-1.83l-1.16,1.16Zm0.94-9v2.86a7,7,0,0,1,7,7.06h2.87a10,10,0,0,0-9.92-9.93h0Zm0-5.07v2.86a12.2,12.2,0,0,1,12.13,12.13h2.87a15.07,15.07,0,0,0-15-15h0Zm0,0" transform="translate(-578.82 -1976.38)"/></g></g><g id="_Group_5" data-name="&lt;Group&gt;"><g id="_Group_6" data-name="&lt;Group&gt;"><path id="_Compound_Path_2" data-name="&lt;Compound Path&gt;" class="cls-2" d="M591.25,2072.81h0.06a1.79,1.79,0,0,0,1.37-.59,3.55,3.55,0,0,0,.61-2.42,2,2,0,0,0-.94-1.76,2.16,2.16,0,0,0-1-.27h0a2.16,2.16,0,0,0-1,.27,2,2,0,0,0-1,1.77,3.55,3.55,0,0,0,.61,2.42,1.78,1.78,0,0,0,1.37.59h0Zm-1.46-3h0a1.41,1.41,0,0,1,1.47-1.54h0a1.42,1.42,0,0,1,1.47,1.54v0a3.07,3.07,0,0,1-.48,2,1.27,1.27,0,0,1-1,.42h0a1.27,1.27,0,0,1-1-.42,3.09,3.09,0,0,1-.48-2h0Zm0,0" transform="translate(-578.82 -1976.38)"/><path id="_Compound_Path_3" data-name="&lt;Compound Path&gt;" class="cls-2" d="M595.27,2075.2h0s0,0,0,0a1.52,1.52,0,0,0-.88-1.57h0a5.6,5.6,0,0,1-1.61-.73,0.26,0.26,0,0,0-.3.43,6,6,0,0,0,1.77.81,1,1,0,0,1,.52,1.09,0.38,0.38,0,0,0,0,0,3.53,3.53,0,0,1,0,.6,7.75,7.75,0,0,1-6.84,0,3.33,3.33,0,0,1,0-.6s0,0,0,0a1,1,0,0,1,.52-1.09,6.09,6.09,0,0,0,1.77-.81,0.26,0.26,0,1,0-.3-0.43,5.54,5.54,0,0,1-1.61.73h0a1.52,1.52,0,0,0-.88,1.57,0.39,0.39,0,0,1,0,0h0a3,3,0,0,0,.1.88,0.25,0.25,0,0,0,.1.12,8.2,8.2,0,0,0,7.57,0,0.26,0.26,0,0,0,.1-0.12,3.12,3.12,0,0,0,.09-0.88h0Zm0,0" transform="translate(-578.82 -1976.38)"/></g></g><g id="_Group_7" data-name="&lt;Group&gt;"><path id="_Compound_Path_4" data-name="&lt;Compound Path&gt;" class="cls-2" d="M595.68,2123.38h-0.92a0.35,0.35,0,0,1-.25-0.6l0.65-.65a0.51,0.51,0,0,0,0-.71l-0.83-.83a0.52,0.52,0,0,0-.71,0l-0.65.65a0.35,0.35,0,0,1-.6-0.25v-0.92a0.5,0.5,0,0,0-.5-0.5H590.7a0.5,0.5,0,0,0-.5.5V2121a0.35,0.35,0,0,1-.6.25l-0.65-.65a0.52,0.52,0,0,0-.71,0l-0.83.83a0.51,0.51,0,0,0,0,.71l0.65,0.65a0.35,0.35,0,0,1-.25.6h-0.92a0.5,0.5,0,0,0-.5.5v1.17a0.5,0.5,0,0,0,.5.5h0.92a0.35,0.35,0,0,1,.25.6l-0.65.65a0.51,0.51,0,0,0,0,.71l0.83,0.83a0.52,0.52,0,0,0,.71,0l0.65-.65a0.35,0.35,0,0,1,.6.25v0.92a0.5,0.5,0,0,0,.5.5h1.17a0.5,0.5,0,0,0,.5-0.5V2128a0.35,0.35,0,0,1,.6-0.25l0.65,0.65a0.52,0.52,0,0,0,.71,0l0.83-.83a0.51,0.51,0,0,0,0-.71l-0.65-.65a0.35,0.35,0,0,1,.25-0.6h0.92a0.5,0.5,0,0,0,.5-0.5v-1.17a0.5,0.5,0,0,0-.5-0.5h0Zm0.14,1.67a0.14,0.14,0,0,1-.14.14h-0.92a0.72,0.72,0,0,0-.51,1.22l0.65,0.65a0.14,0.14,0,0,1,0,.2l-0.83.83a0.14,0.14,0,0,1-.2,0l-0.65-.65a0.72,0.72,0,0,0-1.22.51v0.92a0.14,0.14,0,0,1-.14.14H590.7a0.14,0.14,0,0,1-.14-0.14V2128a0.7,0.7,0,0,0-.44-0.66,0.72,0.72,0,0,0-.28-0.06,0.71,0.71,0,0,0-.5.21l-0.65.65a0.14,0.14,0,0,1-.2,0l-0.83-.83a0.14,0.14,0,0,1,0-.2l0.65-.65a0.72,0.72,0,0,0-.51-1.22h-0.92a0.14,0.14,0,0,1-.14-0.14v-1.17a0.14,0.14,0,0,1,.14-0.14h0.92a0.72,0.72,0,0,0,.51-1.22l-0.65-.65a0.14,0.14,0,0,1,0-.2l0.83-.83a0.14,0.14,0,0,1,.2,0l0.65,0.65a0.72,0.72,0,0,0,1.22-.51v-0.92a0.14,0.14,0,0,1,.14-0.14h1.17a0.14,0.14,0,0,1,.14.14V2121a0.72,0.72,0,0,0,1.22.51l0.65-.65a0.14,0.14,0,0,1,.2,0l0.83,0.83a0.14,0.14,0,0,1,0,.2l-0.65.65a0.72,0.72,0,0,0,.51,1.22h0.92a0.14,0.14,0,0,1,.14.14v1.17Zm0,0" transform="translate(-578.82 -1976.38)"/><path id="_Compound_Path_5" data-name="&lt;Compound Path&gt;" class="cls-2" d="M591.29,2122.84a1.63,1.63,0,1,0,1.63,1.64,1.64,1.64,0,0,0-1.63-1.64h0Zm0,2.91a1.27,1.27,0,1,1,1.27-1.27,1.27,1.27,0,0,1-1.27,1.27h0Zm0,0" transform="translate(-578.82 -1976.38)"/></g><g id="_Group_8" data-name="&lt;Group&gt;"><rect id="_Path_" data-name="&lt;Path&gt;" class="cls-2" x="12.84" y="117.74" width="1.84" height="8.27"/><rect id="_Path_2" data-name="&lt;Path&gt;" class="cls-2" x="10.08" y="123.44" width="1.84" height="2.57"/><rect id="_Path_3" data-name="&lt;Path&gt;" class="cls-2" x="7.32" y="121.78" width="1.84" height="4.23"/><rect id="_Path_4" data-name="&lt;Path&gt;" class="cls-2" x="15.59" y="119.21" width="1.84" height="6.8"/><path id="_Compound_Path_6" data-name="&lt;Compound Path&gt;" class="cls-3" d="M596.62,2102.58H586a0.18,0.18,0,0,1,0-.37h10.66a0.18,0.18,0,1,1,0,.37h0Zm0,0" transform="translate(-578.82 -1976.38)"/></g><g id="_Group_9" data-name="&lt;Group&gt;"><path id="_Compound_Path_7" data-name="&lt;Compound Path&gt;" class="cls-2" d="M587,2149.64h5.16a0.45,0.45,0,1,0,0-.89H587l0.58-.58a0.45,0.45,0,0,0-.63-0.63l-1.34,1.34,0,0h0l0,0h0l0,0h0l0,0h0v0h0v0h0v0a0.42,0.42,0,0,0,0,0,0.42,0.42,0,0,0,0,0v0h0v0h0v0h0l0,0h0l0,0h0l0,0h0l0,0,1.34,1.34a0.45,0.45,0,0,0,.63-0.63Zm0,0" transform="translate(-578.82 -1976.38)"/><path id="_Compound_Path_8" data-name="&lt;Compound Path&gt;" class="cls-2" d="M591.68,2145.55a3.64,3.64,0,0,0-3,1.61,0.45,0.45,0,1,0,.74.5,2.75,2.75,0,1,1,0,3.07,0.45,0.45,0,1,0-.74.5,3.65,3.65,0,1,0,3-5.69h0Zm0,0" transform="translate(-578.82 -1976.38)"/></g><rect id="_Rectangle_2" data-name="&lt;Rectangle&gt;" class="cls-4" x="4.87" y="190.32" width="18.12" height="12.87" rx="6.44" ry="6.44"/><circle id="_Path_5" data-name="&lt;Path&gt;" class="cls-5" cx="13.87" cy="196.78" r="2.48"/><rect id="_Rectangle_3" data-name="&lt;Rectangle&gt;" class="cls-6" y="61.2" width="29.11" height="22.27"/><line id="_Path_6" data-name="&lt;Path&gt;" class="cls-7" x1="29.18" y1="40.12" x2="755.18" y2="40.12"/><g id="_Group_10" data-name="&lt;Group&gt;"><g id="_Group_11" data-name="&lt;Group&gt;"><path id="_Compound_Path_9" data-name="&lt;Compound Path&gt;" class="cls-2" d="M596.67,2018.21a5.82,5.82,0,0,0-8.6,7.83,2.23,2.23,0,0,1-.93,1,0.55,0.55,0,0,0,.16,1,3,3,0,0,0,.46,0,3.48,3.48,0,0,0,2-.68,5.82,5.82,0,0,0,6.87-9.25h0ZM596.2,2026a5.16,5.16,0,0,1-6.26.8,0.33,0.33,0,0,0-.4.05l0,0a2.84,2.84,0,0,1-1.76.63h0a3.26,3.26,0,0,0,1-1.33,0.34,0.34,0,0,0,0-.21,0.34,0.34,0,0,0-.08-0.19,5.16,5.16,0,1,1,7.51.23h0Zm0,0" transform="translate(-578.82 -1976.38)"/></g><path id="_Compound_Path_10" data-name="&lt;Compound Path&gt;" class="cls-2" d="M593,2022.33a0.41,0.41,0,1,1-.41-0.41,0.41,0.41,0,0,1,.41.41h0Zm0,0" transform="translate(-578.82 -1976.38)"/><path id="_Compound_Path_11" data-name="&lt;Compound Path&gt;" class="cls-2" d="M595.07,2022.33a0.41,0.41,0,1,1-.41-0.41,0.41,0.41,0,0,1,.41.41h0Zm0,0" transform="translate(-578.82 -1976.38)"/><path id="_Compound_Path_12" data-name="&lt;Compound Path&gt;" class="cls-2" d="M590.85,2022.33a0.41,0.41,0,1,1-.41-0.41,0.41,0.41,0,0,1,.41.41h0Zm0,0" transform="translate(-578.82 -1976.38)"/></g><g id="_Group_12" data-name="&lt;Group&gt;"><path id="_Path_7" data-name="&lt;Path&gt;" class="cls-2" d="M588.69,2054.2l-0.08,0a0.16,0.16,0,0,1-.06-0.2l1.82-4.32h-1.67a0.16,0.16,0,0,1-.15-0.23l2.43-4.87a0.16,0.16,0,0,1,.15-0.09h2.6a0.16,0.16,0,0,1,.14.25l-1.9,3h1.92a0.16,0.16,0,0,1,.12.27l-5.19,6.17a0.16,0.16,0,0,1-.12.06" transform="translate(-578.82 -1976.38)"/></g><text class="cls-8" transform="translate(347.6 26.85)">Enga<tspan x="36.29" y="0">g</tspan><tspan x="44.69" y="0">e</tspan></text><rect id="_Rectangle_4" data-name="&lt;Rectangle&gt;" class="cls-3" x="637.9" y="9.95" width="82.51" height="21.74" rx="3" ry="3"/><rect id="_Rectangle_5" data-name="&lt;Rectangle&gt;" class="cls-9" x="307.35" y="37.57" width="135.94" height="2.36"/><text class="cls-10" transform="translate(661.4 24.23)">C<tspan x="7.18" y="0">r</tspan><tspan x="11.46" y="0">e</tspan><tspan x="17.67" y="0">a</tspan><tspan x="24.08" y="0">t</tspan><tspan x="28.23" y="0">e</tspan></text><rect id="_Rectangle_6" data-name="&lt;Rectangle&gt;" class="cls-11" x="29.3" y="40.2" width="725.23" height="431.15"/><line id="_Path_8" data-name="&lt;Path&gt;" class="cls-12" x1="63.18" y1="103.12" x2="704.18" y2="103.12"/><text class="cls-13" transform="translate(84.89 94.22)">A<tspan x="8.47" y="0">ll</tspan></text><text class="cls-14" transform="translate(165.04 94.22)">L<tspan x="7.44" y="0">i</tspan><tspan x="11.01" y="0">v</tspan><tspan x="17.37" y="0">e</tspan></text><text class="cls-14" transform="translate(244.92 94.22)">P<tspan x="8.36" y="0">a</tspan><tspan x="16.01" y="0">used</tspan></text><line id="_Path_9" data-name="&lt;Path&gt;" class="cls-15" x1="63.18" y1="103.62" x2="126.18" y2="103.62"/><rect id="_Rectangle_7" data-name="&lt;Rectangle&gt;" class="cls-2" x="62.89" y="153.35" width="644.1" height="146.74"/><rect id="_Rectangle_8" data-name="&lt;Rectangle&gt;" class="cls-16" x="62.3" y="121.33" width="644.69" height="32.02"/><text class="cls-17" transform="translate(80.55 139.55)">Campaign Name</text><text class="cls-17" transform="translate(199.53 139.55)">R<tspan x="6.51" y="0">ead</tspan></text><text class="cls-17" transform="translate(279.88 139.55)">Del<tspan x="15.17" y="0">a</tspan><tspan x="20.65" y="0">y</tspan></text><text class="cls-17" transform="translate(366.51 139.55)">R<tspan x="6.51" y="0">ep</tspan><tspan x="17.95" y="0">l</tspan><tspan x="20.76" y="0">y</tspan></text><text class="cls-17" transform="translate(445.29 139.55)">C<tspan x="6.33" y="0">r</tspan><tspan x="10.06" y="0">e</tspan><tspan x="15.57" y="0">a</tspan><tspan x="21.1" y="0">t</tspan><tspan x="24.84" y="0">ed </tspan><tspan x="38.58" y="0">b</tspan><tspan x="44.37" y="0">y</tspan></text><text class="cls-17" transform="translate(531.91 139.55)">UR<tspan x="13.38" y="0">L</tspan></text><text class="cls-18" transform="translate(79.6 171.15)">Discussion</text><text class="cls-18" transform="translate(199.96 171.15)">250</text><text class="cls-18" transform="translate(279.33 171.15)">5</text><text class="cls-18" transform="translate(366.55 171.15)">200</text><text class="cls-18" transform="translate(446.3 171.15)">L<tspan x="5.3" y="0">o</tspan><tspan x="10.75" y="0">r</tspan><tspan x="14.46" y="0">e Cummin</tspan></text><text class="cls-19" transform="translate(533.13 171.15)">/<tspan x="3.5" y="0">discussion</tspan><tspan x="52.07" y="0">/</tspan><tspan x="55.72" y="0">s</tspan><tspan x="60.79" y="0">ta</tspan><tspan x="70.08" y="0">r</tspan><tspan x="73.98" y="0">t</tspan></text><line id="_Path_10" data-name="&lt;Path&gt;" class="cls-20" x1="68.18" y1="182.12" x2="693.18" y2="182.12"/><text class="cls-18" transform="translate(79.6 200.22)">Consult</text><text class="cls-18" transform="translate(199.96 200.22)">250</text><text class="cls-18" transform="translate(279.33 200.22)">5</text><text class="cls-18" transform="translate(366.55 200.22)">200</text><text class="cls-18" transform="translate(446.3 200.22)">A<tspan x="6.02" y="0">d</tspan><tspan x="11.85" y="0">w</tspan><tspan x="19.25" y="0">a</tspan><tspan x="24.85" y="0">r</tspan><tspan x="28.48" y="0">d</tspan></text><text class="cls-19" transform="translate(533.13 200.22)">/<tspan x="3.5" y="0">discussion</tspan><tspan x="52.07" y="0">/</tspan><tspan x="55.72" y="0">s</tspan><tspan x="60.79" y="0">ta</tspan><tspan x="70.08" y="0">r</tspan><tspan x="73.98" y="0">t</tspan></text><line id="_Path_11" data-name="&lt;Path&gt;" class="cls-20" x1="68.18" y1="211.12" x2="693.18" y2="211.12"/><text class="cls-18" transform="translate(79.6 226.15)">Landing <tspan x="38.59" y="0">P</tspan><tspan x="44.66" y="0">a</tspan><tspan x="50.26" y="0">g</tspan><tspan x="55.48" y="0">e</tspan></text><text class="cls-18" transform="translate(199.96 226.15)">250</text><text class="cls-18" transform="translate(279.33 226.15)">5</text><text class="cls-18" transform="translate(366.55 226.15)">200</text><text class="cls-18" transform="translate(446.3 226.15)">L<tspan x="5.3" y="0">o</tspan><tspan x="10.75" y="0">r</tspan><tspan x="14.46" y="0">e Cummin</tspan></text><text class="cls-19" transform="translate(533.13 226.15)">/<tspan x="3.5" y="0">discussion</tspan><tspan x="52.07" y="0">/</tspan><tspan x="55.72" y="0">s</tspan><tspan x="60.79" y="0">ta</tspan><tspan x="70.08" y="0">r</tspan><tspan x="73.98" y="0">t</tspan></text><line id="_Path_12" data-name="&lt;Path&gt;" class="cls-20" x1="68.18" y1="238.12" x2="693.18" y2="238.12"/><text class="cls-18" transform="translate(79.6 252.08)">Sa<tspan x="11.81" y="0">l</tspan><tspan x="14.55" y="0">e </tspan><tspan x="22.08" y="0">P</tspan><tspan x="28.15" y="0">a</tspan><tspan x="33.75" y="0">g</tspan><tspan x="38.97" y="0">e</tspan></text><text class="cls-18" transform="translate(199.96 252.08)">250</text><text class="cls-18" transform="translate(279.33 252.08)">5</text><text class="cls-18" transform="translate(366.55 252.08)">200</text><text class="cls-18" transform="translate(446.3 252.08)">L<tspan x="5.3" y="0">o</tspan><tspan x="10.75" y="0">r</tspan><tspan x="14.46" y="0">e Cummin</tspan></text><text class="cls-19" transform="translate(533.13 252.08)">/<tspan x="3.5" y="0">discussion</tspan><tspan x="52.07" y="0">/</tspan><tspan x="55.72" y="0">s</tspan><tspan x="60.79" y="0">ta</tspan><tspan x="70.08" y="0">r</tspan><tspan x="73.98" y="0">t</tspan></text><line id="_Path_13" data-name="&lt;Path&gt;" class="cls-20" x1="68.18" y1="263.12" x2="693.18" y2="263.12"/><text class="cls-18" transform="translate(79.6 280.37)">N<tspan x="7.37" y="0">e</tspan><tspan x="12.7" y="0">w Member</tspan></text><text class="cls-18" transform="translate(199.96 280.37)">250</text><text class="cls-18" transform="translate(279.33 280.37)">5</text><text class="cls-18" transform="translate(366.55 280.37)">200</text><text class="cls-18" transform="translate(446.3 280.37)">jacob d<tspan x="32.81" y="0">e</tspan><tspan x="38.14" y="0">w</tspan></text><text class="cls-19" transform="translate(533.13 280.37)">/<tspan x="3.5" y="0">discussion</tspan><tspan x="52.07" y="0">/</tspan><tspan x="55.72" y="0">s</tspan><tspan x="60.79" y="0">ta</tspan><tspan x="70.08" y="0">r</tspan><tspan x="73.98" y="0">t</tspan></text><line id="_Path_14" data-name="&lt;Path&gt;" class="cls-20" x1="68.18" y1="291.12" x2="693.18" y2="291.12"/></g></g></svg>