<svg id="Layer_1" data-name="Layer 1" xmlns="http://www.w3.org/2000/svg" viewBox="0 0 33.3 33.3"><defs><style>.cls-1{fill:#007bb5;}.cls-2{fill:#fff;}</style></defs><title>link</title><g id="_Group_" data-name="&lt;Group&gt;"><rect id="_Path_" data-name="&lt;Path&gt;" class="cls-1" width="33.3" height="33.3" rx="6.84" ry="6.84"/><g id="_Group_2" data-name="&lt;Group&gt;"><path id="_Compound_Path_" data-name="&lt;Compound Path&gt;" class="cls-2" d="M5313.84,8352.29h5v16.08h-5v-16.08Zm2.5-8a2.9,2.9,0,1,1-2.9,2.9,2.9,2.9,0,0,1,2.9-2.9" transform="translate(-5308.85 -8339.68)"/><path id="_Path_2" data-name="&lt;Path&gt;" class="cls-2" d="M5322,8352.29h4.79v2.2h0.07a5.25,5.25,0,0,1,4.73-2.6c5.06,0,6,3.33,6,7.66v8.82h-5v-7.82c0-1.86,0-4.26-2.6-4.26s-3,2-3,4.13v8h-5v-16.08Z" transform="translate(-5308.85 -8339.68)"/></g></g></svg>