<svg id="Layer_1" data-name="Layer 1" xmlns="http://www.w3.org/2000/svg" viewBox="0 0 264.51 76.94"><defs><style>.cls-1{fill:#2877e9;}.cls-2{fill:#fff;}</style></defs><title>message blue</title><rect id="_Rectangle_" data-name="&lt;Rectangle&gt;" class="cls-1" width="264.51" height="76.94" rx="3" ry="3"/><path class="cls-2" d="M333,5212.11v11.64H332.1v-11.64h-4v-0.88H337v0.88h-4Z" transform="translate(-307.16 -5188.45)"/><path class="cls-2" d="M345.12,5223.75V5218c0-1.54-.67-2.46-2.28-2.46-2.17,0-2.93,1.91-2.93,3.82v4.42H339V5211h0.88v5.55a3.3,3.3,0,0,1,3-1.86,2.9,2.9,0,0,1,3.11,3.23v5.83h-0.88Z" transform="translate(-307.16 -5188.45)"/><path class="cls-2" d="M356.22,5223.81c-1.1,0-1.4-.79-1.4-1.73a3.28,3.28,0,0,1-3.18,1.91,2.75,2.75,0,0,1-3-2.72c0-1.57,1.22-2.51,3-2.63l3.25-.23v-0.87c0-1.47-1-2-2.33-2s-2.46.64-2.54,1.94h-0.88c0.12-1.79,1.52-2.77,3.43-2.77a3,3,0,0,1,3,1.63,4.58,4.58,0,0,1,.23,1.7v4c0,0.6.09,1,.69,1a1.09,1.09,0,0,0,.25,0v0.78A1.75,1.75,0,0,1,356.22,5223.81Zm-1.4-4.59-3.16.19c-1.31.09-2.16,0.78-2.16,1.86a1.93,1.93,0,0,0,2.21,1.91c2.23,0,3.11-1.8,3.11-3.5v-0.46Z" transform="translate(-307.16 -5188.45)"/><path class="cls-2" d="M365.34,5223.75V5218c0-1.54-.67-2.42-2.28-2.42-2.17,0-2.93,1.87-2.93,3.78v4.42h-0.88v-8.83H360l0.11,1.61a3.32,3.32,0,0,1,3-1.84,2.9,2.9,0,0,1,3.11,3.23v5.83h-0.88Z" transform="translate(-307.16 -5188.45)"/><path class="cls-2" d="M375.88,5223.75l-3.11-4.72-2.31,2.53v2.19h-0.9V5211h0.9v9.29l5-5.37h1.11l-3.13,3.41,3.55,5.42h-1.08Z" transform="translate(-307.16 -5188.45)"/><path class="cls-2" d="M384.64,5222.92a3.82,3.82,0,0,1-2.86,1.06,3.74,3.74,0,0,1-2.9-1.13,2.66,2.66,0,0,1-.74-1.78H379a2.2,2.2,0,0,0,.65,1.36,3.53,3.53,0,0,0,4.17.05,1.43,1.43,0,0,0,.48-1.13,1.66,1.66,0,0,0-1.63-1.61l-1.71-.23a3.1,3.1,0,0,1-2-.88,2.07,2.07,0,0,1-.49-1.4,2.29,2.29,0,0,1,.76-1.71,3.51,3.51,0,0,1,2.42-.83,3.46,3.46,0,0,1,2.67,1,2.7,2.7,0,0,1,.67,1.63h-0.88a2.14,2.14,0,0,0-.44-1.06,2.56,2.56,0,0,0-2-.78,2.62,2.62,0,0,0-1.59.41,1.5,1.5,0,0,0-.69,1.22c0,0.74.37,1.31,1.71,1.48l1.68,0.23a2.54,2.54,0,0,1,2.44,2.44A2.37,2.37,0,0,1,384.64,5222.92Z" transform="translate(-307.16 -5188.45)"/><path class="cls-2" d="M388,5225.93l-0.3-.5a1.59,1.59,0,0,0,1-1.68h-1v-1.59h1.63v1.61A2.17,2.17,0,0,1,388,5225.93Z" transform="translate(-307.16 -5188.45)"/><path class="cls-2" d="M395.5,5212.46v-1.24h1.24v1.24H395.5Zm0.16,11.29v-8.83h0.94v8.83h-0.94Z" transform="translate(-307.16 -5188.45)"/><path class="cls-2" d="M405.87,5222.92A3.82,3.82,0,0,1,403,5224a3.74,3.74,0,0,1-2.9-1.13,2.66,2.66,0,0,1-.74-1.78h0.9a2.2,2.2,0,0,0,.65,1.36,3.53,3.53,0,0,0,4.17.05,1.43,1.43,0,0,0,.48-1.13,1.66,1.66,0,0,0-1.63-1.61l-1.71-.23a3.1,3.1,0,0,1-2-.88,2.07,2.07,0,0,1-.49-1.4,2.29,2.29,0,0,1,.76-1.71,3.51,3.51,0,0,1,2.42-.83,3.46,3.46,0,0,1,2.67,1,2.7,2.7,0,0,1,.67,1.63h-0.88a2.14,2.14,0,0,0-.44-1.06,2.56,2.56,0,0,0-2-.78,2.62,2.62,0,0,0-1.59.41,1.5,1.5,0,0,0-.69,1.22c0,0.74.37,1.31,1.71,1.48l1.68,0.23a2.54,2.54,0,0,1,2.44,2.44A2.37,2.37,0,0,1,405.87,5222.92Z" transform="translate(-307.16 -5188.45)"/><path class="cls-2" d="M412.94,5212.46v-1.24h1.24v1.24h-1.24Zm0.16,11.29v-8.83H414v8.83H413.1Z" transform="translate(-307.16 -5188.45)"/><path class="cls-2" d="M420.33,5223.88c-1.64,0-2.28-1-2.28-2.58v-5.57h-1.77v-0.81h1.77v-2.44l0.88-.21v2.65h2.74v0.81h-2.74v5.53c0,1,.28,1.78,1.47,1.78a7.47,7.47,0,0,0,1.4-.16v0.78A7,7,0,0,1,420.33,5223.88Z" transform="translate(-307.16 -5188.45)"/><path class="cls-2" d="M434.19,5223.07a3.48,3.48,0,0,1-5.35-.79v5H428v-12.37h0.78l0.11,1.55a3.26,3.26,0,0,1,2.93-1.78,3.42,3.42,0,0,1,2.35.83,5,5,0,0,1,1.45,3.8A5.14,5.14,0,0,1,434.19,5223.07Zm-0.69-6.89a2.54,2.54,0,0,0-1.75-.62,2.5,2.5,0,0,0-1.8.71,4.14,4.14,0,0,0-1.13,3.08,4,4,0,0,0,1.11,3.09,2.56,2.56,0,0,0,1.85.69,2.5,2.5,0,0,0,1.89-.78,4.43,4.43,0,0,0,1-3A4.17,4.17,0,0,0,433.5,5216.17Z" transform="translate(-307.16 -5188.45)"/><path class="cls-2" d="M443.93,5222.92a3.67,3.67,0,0,1-5.16,0,5.76,5.76,0,0,1,0-7.17,3.67,3.67,0,0,1,5.16,0A5.76,5.76,0,0,1,443.93,5222.92Zm-0.64-6.59a2.82,2.82,0,0,0-3.89,0,5.05,5.05,0,0,0,0,6,2.82,2.82,0,0,0,3.89,0A5.06,5.06,0,0,0,443.29,5216.33Z" transform="translate(-307.16 -5188.45)"/><path class="cls-2" d="M453.63,5222.92a3.82,3.82,0,0,1-2.86,1.06,3.74,3.74,0,0,1-2.9-1.13,2.66,2.66,0,0,1-.74-1.78H448a2.2,2.2,0,0,0,.65,1.36,3.53,3.53,0,0,0,4.17.05,1.43,1.43,0,0,0,.48-1.13,1.66,1.66,0,0,0-1.63-1.61l-1.71-.23a3.1,3.1,0,0,1-2-.88,2.07,2.07,0,0,1-.49-1.4,2.29,2.29,0,0,1,.76-1.71,3.51,3.51,0,0,1,2.42-.83,3.46,3.46,0,0,1,2.67,1,2.7,2.7,0,0,1,.67,1.63h-0.88a2.14,2.14,0,0,0-.44-1.06,2.56,2.56,0,0,0-2-.78,2.62,2.62,0,0,0-1.59.41,1.5,1.5,0,0,0-.69,1.22c0,0.74.37,1.31,1.71,1.48l1.68,0.23a2.54,2.54,0,0,1,2.44,2.44A2.37,2.37,0,0,1,453.63,5222.92Z" transform="translate(-307.16 -5188.45)"/><path class="cls-2" d="M462.68,5222.92a3.82,3.82,0,0,1-2.86,1.06,3.74,3.74,0,0,1-2.9-1.13,2.66,2.66,0,0,1-.74-1.78h0.9a2.2,2.2,0,0,0,.65,1.36,3.53,3.53,0,0,0,4.17.05,1.43,1.43,0,0,0,.48-1.13,1.66,1.66,0,0,0-1.63-1.61l-1.71-.23a3.1,3.1,0,0,1-2-.88,2.07,2.07,0,0,1-.49-1.4,2.29,2.29,0,0,1,.76-1.71,3.51,3.51,0,0,1,2.42-.83,3.46,3.46,0,0,1,2.67,1,2.7,2.7,0,0,1,.67,1.63h-0.88a2.14,2.14,0,0,0-.44-1.06,2.56,2.56,0,0,0-2-.78,2.62,2.62,0,0,0-1.59.41,1.5,1.5,0,0,0-.69,1.22c0,0.74.37,1.31,1.71,1.48l1.68,0.23a2.54,2.54,0,0,1,2.44,2.44A2.37,2.37,0,0,1,462.68,5222.92Z" transform="translate(-307.16 -5188.45)"/><path class="cls-2" d="M466,5212.46v-1.24h1.24v1.24H466Zm0.16,11.29v-8.83H467v8.83h-0.94Z" transform="translate(-307.16 -5188.45)"/><path class="cls-2" d="M476.79,5223.15a3.42,3.42,0,0,1-2.35.83,3.26,3.26,0,0,1-2.93-1.78l-0.11,1.55h-0.78V5211h0.88v5.41a3.48,3.48,0,0,1,5.35-.79,5.14,5.14,0,0,1,1.38,3.75A5,5,0,0,1,476.79,5223.15Zm-0.44-6.82a2.49,2.49,0,0,0-1.89-.78,2.56,2.56,0,0,0-1.85.69,4,4,0,0,0-1.11,3.09,4.14,4.14,0,0,0,1.13,3.07,2.5,2.5,0,0,0,1.8.71,2.54,2.54,0,0,0,1.75-.62,4.17,4.17,0,0,0,1.17-3.16A4.43,4.43,0,0,0,476.34,5216.33Z" transform="translate(-307.16 -5188.45)"/><path class="cls-2" d="M482.66,5223.86a1.61,1.61,0,0,1-1.77-1.87v-11h0.88v11a0.87,0.87,0,0,0,.92,1.06,4.77,4.77,0,0,0,.76,0v0.78A2.78,2.78,0,0,1,482.66,5223.86Z" transform="translate(-307.16 -5188.45)"/><path class="cls-2" d="M492.66,5219.55h-6.75a4.26,4.26,0,0,0,.92,2.65,2.65,2.65,0,0,0,2.14.94,2.62,2.62,0,0,0,1.93-.78,2.47,2.47,0,0,0,.67-1.25h0.92a3.29,3.29,0,0,1-1,1.86,3.54,3.54,0,0,1-2.53,1,3.59,3.59,0,0,1-2.81-1.25,5.82,5.82,0,0,1-.26-6.5,3.59,3.59,0,0,1,3-1.54c2.39,0,3.78,2,3.78,4.28C492.68,5219.18,492.66,5219.34,492.66,5219.55Zm-3.76-4a3,3,0,0,0-3,3.22h5.85A3,3,0,0,0,488.9,5215.52Z" transform="translate(-307.16 -5188.45)"/><path class="cls-2" d="M501.83,5223.88c-1.64,0-2.28-1-2.28-2.58v-5.57h-1.77v-0.81h1.77v-2.44l0.88-.21v2.65h2.74v0.81h-2.74v5.53c0,1,.28,1.78,1.47,1.78a7.47,7.47,0,0,0,1.4-.16v0.78A7,7,0,0,1,501.83,5223.88Z" transform="translate(-307.16 -5188.45)"/><path class="cls-2" d="M511.13,5222.92a3.67,3.67,0,0,1-5.16,0,5.75,5.75,0,0,1,0-7.17,3.67,3.67,0,0,1,5.16,0A5.76,5.76,0,0,1,511.13,5222.92Zm-0.64-6.59a2.82,2.82,0,0,0-3.89,0,5.05,5.05,0,0,0,0,6,2.82,2.82,0,0,0,3.89,0A5.06,5.06,0,0,0,510.49,5216.33Z" transform="translate(-307.16 -5188.45)"/><path class="cls-2" d="M525.82,5223.81c-1.1,0-1.4-.79-1.4-1.73a3.28,3.28,0,0,1-3.18,1.91,2.75,2.75,0,0,1-3-2.72c0-1.57,1.22-2.51,3-2.63l3.25-.23v-0.87c0-1.47-1-2-2.33-2s-2.46.64-2.54,1.94h-0.88c0.12-1.79,1.52-2.77,3.43-2.77a3,3,0,0,1,3,1.63,4.58,4.58,0,0,1,.23,1.7v4c0,0.6.09,1,.69,1a1.09,1.09,0,0,0,.25,0v0.78A1.75,1.75,0,0,1,525.82,5223.81Zm-1.4-4.59-3.16.19c-1.31.09-2.16,0.78-2.16,1.86a1.93,1.93,0,0,0,2.21,1.91c2.23,0,3.11-1.8,3.11-3.5v-0.46Z" transform="translate(-307.16 -5188.45)"/><path class="cls-2" d="M534.89,5223.75l-0.11-1.55a3.26,3.26,0,0,1-2.93,1.78,3.42,3.42,0,0,1-2.35-.83,5,5,0,0,1-1.45-3.8,5.14,5.14,0,0,1,1.38-3.75,3.48,3.48,0,0,1,5.35.79V5211h0.88v12.76h-0.78Zm-1.2-7.51a2.57,2.57,0,0,0-1.86-.69,2.49,2.49,0,0,0-1.89.78,4.44,4.44,0,0,0-1,3,4.17,4.17,0,0,0,1.17,3.16,2.54,2.54,0,0,0,1.75.62,2.5,2.5,0,0,0,1.8-.71,4.15,4.15,0,0,0,1.13-3.07A4,4,0,0,0,533.69,5216.25Z" transform="translate(-307.16 -5188.45)"/><path class="cls-2" d="M545.12,5223.75L545,5222.2a3.26,3.26,0,0,1-2.93,1.78,3.42,3.42,0,0,1-2.35-.83,5,5,0,0,1-1.45-3.8,5.14,5.14,0,0,1,1.38-3.75,3.48,3.48,0,0,1,5.35.79V5211h0.88v12.76h-0.78Zm-1.2-7.51a2.57,2.57,0,0,0-1.86-.69,2.49,2.49,0,0,0-1.89.78,4.44,4.44,0,0,0-1,3,4.17,4.17,0,0,0,1.17,3.16,2.54,2.54,0,0,0,1.75.62,2.5,2.5,0,0,0,1.8-.71,4.15,4.15,0,0,0,1.13-3.07A4,4,0,0,0,543.92,5216.25Z" transform="translate(-307.16 -5188.45)"/><path class="cls-2" d="M336.5,5245c-1.1,0-1.4-.79-1.4-1.73a3.28,3.28,0,0,1-3.18,1.91,2.75,2.75,0,0,1-3-2.72c0-1.57,1.22-2.51,3-2.63l3.25-.23v-0.87c0-1.47-1-2-2.33-2s-2.46.64-2.54,1.94h-0.88c0.12-1.79,1.52-2.77,3.43-2.77a3,3,0,0,1,3,1.63,4.58,4.58,0,0,1,.23,1.7v4c0,0.6.09,1,.69,1a1.09,1.09,0,0,0,.25,0V5245A1.75,1.75,0,0,1,336.5,5245Zm-1.4-4.59-3.16.19c-1.31.09-2.16,0.78-2.16,1.86a1.93,1.93,0,0,0,2.21,1.91c2.23,0,3.11-1.8,3.11-3.5v-0.46Z" transform="translate(-307.16 -5188.45)"/><path class="cls-2" d="M345.62,5245v-5.78c0-1.54-.67-2.42-2.28-2.42-2.17,0-2.93,1.87-2.93,3.78V5245h-0.88v-8.83h0.78l0.11,1.61a3.32,3.32,0,0,1,3-1.84,2.9,2.9,0,0,1,3.11,3.23V5245h-0.88Z" transform="translate(-307.16 -5188.45)"/><path class="cls-2" d="M355.48,5244.14a3.67,3.67,0,0,1-5.16,0,5.76,5.76,0,0,1,0-7.17,3.67,3.67,0,0,1,5.16,0A5.76,5.76,0,0,1,355.48,5244.14Zm-0.64-6.59a2.82,2.82,0,0,0-3.89,0,5.05,5.05,0,0,0,0,6,2.82,2.82,0,0,0,3.89,0A5.06,5.06,0,0,0,354.84,5237.54Z" transform="translate(-307.16 -5188.45)"/><path class="cls-2" d="M362.11,5245.09c-1.64,0-2.28-1-2.28-2.58v-5.57h-1.77v-0.81h1.77v-2.44l0.88-.21v2.65h2.74v0.81h-2.74v5.53c0,1,.28,1.78,1.47,1.78a7.47,7.47,0,0,0,1.4-.16v0.78A7,7,0,0,1,362.11,5245.09Z" transform="translate(-307.16 -5188.45)"/><path class="cls-2" d="M372,5245v-5.78c0-1.54-.67-2.46-2.28-2.46-2.17,0-2.93,1.91-2.93,3.82V5245h-0.88v-12.76h0.88v5.55a3.3,3.3,0,0,1,3-1.86,2.9,2.9,0,0,1,3.11,3.23V5245H372Z" transform="translate(-307.16 -5188.45)"/><path class="cls-2" d="M383.1,5240.76h-6.75a4.26,4.26,0,0,0,.92,2.65,2.65,2.65,0,0,0,2.14.94,2.62,2.62,0,0,0,1.93-.78,2.47,2.47,0,0,0,.67-1.25h0.92a3.29,3.29,0,0,1-1,1.86,3.54,3.54,0,0,1-2.53,1,3.59,3.59,0,0,1-2.81-1.25,5.82,5.82,0,0,1-.27-6.5,3.59,3.59,0,0,1,3-1.54c2.39,0,3.78,2,3.78,4.28C383.12,5240.39,383.1,5240.55,383.1,5240.76Zm-3.76-4a3,3,0,0,0-3,3.22h5.85A3,3,0,0,0,379.34,5236.73Z" transform="translate(-307.16 -5188.45)"/><path class="cls-2" d="M389.45,5236.89c-2.21,0-2.81,2-2.81,3.83V5245h-0.88v-8.83h0.78l0.11,1.79a2.84,2.84,0,0,1,2.81-1.87,4.77,4.77,0,0,1,.87.05V5237A3.57,3.57,0,0,0,389.45,5236.89Z" transform="translate(-307.16 -5188.45)"/><path class="cls-2" d="M402.53,5244.28a3.48,3.48,0,0,1-5.35-.79v5h-0.88v-12.37h0.78l0.11,1.55a3.26,3.26,0,0,1,2.93-1.78,3.42,3.42,0,0,1,2.35.83,5,5,0,0,1,1.45,3.8A5.14,5.14,0,0,1,402.53,5244.28Zm-0.69-6.89a2.54,2.54,0,0,0-1.75-.62,2.5,2.5,0,0,0-1.8.71,4.14,4.14,0,0,0-1.13,3.08,4,4,0,0,0,1.11,3.09,2.56,2.56,0,0,0,1.85.69,2.5,2.5,0,0,0,1.89-.78,4.43,4.43,0,0,0,1-3A4.17,4.17,0,0,0,401.84,5237.39Z" transform="translate(-307.16 -5188.45)"/><path class="cls-2" d="M410.31,5236.89c-2.21,0-2.81,2-2.81,3.83V5245h-0.88v-8.83h0.78l0.11,1.79a2.84,2.84,0,0,1,2.81-1.87,4.77,4.77,0,0,1,.87.05V5237A3.57,3.57,0,0,0,410.31,5236.89Z" transform="translate(-307.16 -5188.45)"/><path class="cls-2" d="M418.69,5244.14a3.67,3.67,0,0,1-5.16,0,5.76,5.76,0,0,1,0-7.17,3.67,3.67,0,0,1,5.16,0A5.76,5.76,0,0,1,418.69,5244.14Zm-0.64-6.59a2.82,2.82,0,0,0-3.89,0,5.05,5.05,0,0,0,0,6,2.82,2.82,0,0,0,3.89,0A5.06,5.06,0,0,0,418.05,5237.54Z" transform="translate(-307.16 -5188.45)"/><path class="cls-2" d="M421.84,5248.62a6.34,6.34,0,0,1-1.22-.12v-0.81a6.45,6.45,0,0,0,1.15.11c1,0,1.47-.64,1.47-1.73v-9.93h0.88v10C424.11,5247.56,423.5,5248.62,421.84,5248.62Zm1.2-14.95v-1.24h1.22v1.24H423Z" transform="translate(-307.16 -5188.45)"/><path class="cls-2" d="M434.58,5240.76h-6.75a4.26,4.26,0,0,0,.92,2.65,2.65,2.65,0,0,0,2.14.94,2.62,2.62,0,0,0,1.93-.78,2.47,2.47,0,0,0,.67-1.25h0.92a3.29,3.29,0,0,1-1,1.86,3.54,3.54,0,0,1-2.53,1,3.59,3.59,0,0,1-2.81-1.25,5.82,5.82,0,0,1-.27-6.5,3.59,3.59,0,0,1,3-1.54c2.39,0,3.78,2,3.78,4.28C434.59,5240.39,434.58,5240.55,434.58,5240.76Zm-3.76-4a3,3,0,0,0-3,3.22h5.85A3,3,0,0,0,430.81,5236.73Z" transform="translate(-307.16 -5188.45)"/><path class="cls-2" d="M440.3,5245.2a3.6,3.6,0,0,1-2.6-1,5.87,5.87,0,0,1,0-7.21,3.6,3.6,0,0,1,2.6-1,3.29,3.29,0,0,1,3.41,3H442.8a2.45,2.45,0,0,0-2.49-2.12,2.62,2.62,0,0,0-2,.76,4.09,4.09,0,0,0-1,3,4.13,4.13,0,0,0,1,3,2.61,2.61,0,0,0,2,.74,2.51,2.51,0,0,0,2.51-2.16h0.94A3.41,3.41,0,0,1,440.3,5245.2Z" transform="translate(-307.16 -5188.45)"/><path class="cls-2" d="M448.91,5245.09c-1.64,0-2.28-1-2.28-2.58v-5.57h-1.77v-0.81h1.77v-2.44l0.88-.21v2.65h2.74v0.81h-2.74v5.53c0,1,.28,1.78,1.47,1.78a7.47,7.47,0,0,0,1.4-.16v0.78A7,7,0,0,1,448.91,5245.09Z" transform="translate(-307.16 -5188.45)"/><path class="cls-2" d="M456.46,5233.67v-1.24h1.24v1.24h-1.24Zm0.16,11.29v-8.83h0.94V5245h-0.94Z" transform="translate(-307.16 -5188.45)"/><path class="cls-2" d="M467.22,5245v-5.78c0-1.54-.67-2.42-2.28-2.42-2.17,0-2.93,1.87-2.93,3.78V5245h-0.88v-8.83h0.78l0.11,1.61a3.32,3.32,0,0,1,3-1.84,2.9,2.9,0,0,1,3.11,3.23V5245h-0.88Z" transform="translate(-307.16 -5188.45)"/><path class="cls-2" d="M486.49,5245v-5.78c0-1.54-.57-2.46-2.1-2.46a2.22,2.22,0,0,0-1.57.6,3.53,3.53,0,0,0-1,2.63v5h-0.9v-5.78c0-1.54-.58-2.46-2.12-2.46a2.19,2.19,0,0,0-1.57.6,4.34,4.34,0,0,0-1.06,3.22V5245h-0.88v-8.83H476l0.11,1.52a2.9,2.9,0,0,1,2.69-1.75,2.65,2.65,0,0,1,2.79,1.91,3,3,0,0,1,2.84-1.91c2.07,0,2.93,1.34,2.93,3.23V5245h-0.88Z" transform="translate(-307.16 -5188.45)"/><path class="cls-2" d="M493.1,5246.86a2.43,2.43,0,0,1-2.39,1.8,3.32,3.32,0,0,1-1.11-.16v-0.74a7.87,7.87,0,0,0,1.08.11,1.71,1.71,0,0,0,1.61-1.31l0.57-1.45-3.62-9h1l3.09,7.85,3-7.85h1Z" transform="translate(-307.16 -5188.45)"/><path class="cls-2" d="M509.2,5244.28a3.48,3.48,0,0,1-5.35-.79v5H503v-12.37h0.78l0.11,1.55a3.26,3.26,0,0,1,2.93-1.78,3.42,3.42,0,0,1,2.35.83,5,5,0,0,1,1.45,3.8A5.14,5.14,0,0,1,509.2,5244.28Zm-0.69-6.89a2.54,2.54,0,0,0-1.75-.62,2.5,2.5,0,0,0-1.8.71,4.14,4.14,0,0,0-1.13,3.08,4,4,0,0,0,1.11,3.09,2.56,2.56,0,0,0,1.85.69,2.5,2.5,0,0,0,1.89-.78,4.43,4.43,0,0,0,1-3A4.17,4.17,0,0,0,508.51,5237.39Z" transform="translate(-307.16 -5188.45)"/><path class="cls-2" d="M515,5245.07a1.61,1.61,0,0,1-1.77-1.87v-11h0.88v11a0.87,0.87,0,0,0,.92,1.06,4.77,4.77,0,0,0,.76,0V5245A2.78,2.78,0,0,1,515,5245.07Z" transform="translate(-307.16 -5188.45)"/><path class="cls-2" d="M525.11,5245c-1.1,0-1.4-.79-1.4-1.73a3.28,3.28,0,0,1-3.18,1.91,2.75,2.75,0,0,1-3-2.72c0-1.57,1.22-2.51,3-2.63l3.25-.23v-0.87c0-1.47-1-2-2.33-2s-2.46.64-2.54,1.94H518c0.12-1.79,1.52-2.77,3.43-2.77a3,3,0,0,1,3,1.63,4.58,4.58,0,0,1,.23,1.7v4c0,0.6.09,1,.69,1a1.09,1.09,0,0,0,.25,0V5245A1.75,1.75,0,0,1,525.11,5245Zm-1.4-4.59-3.16.19c-1.31.09-2.16,0.78-2.16,1.86a1.93,1.93,0,0,0,2.21,1.91c2.23,0,3.11-1.8,3.11-3.5v-0.46Z" transform="translate(-307.16 -5188.45)"/><path class="cls-2" d="M534.23,5245v-5.78c0-1.54-.67-2.42-2.28-2.42-2.17,0-2.93,1.87-2.93,3.78V5245h-0.88v-8.83h0.78l0.11,1.61a3.32,3.32,0,0,1,3-1.84,2.9,2.9,0,0,1,3.11,3.23V5245h-0.88Z" transform="translate(-307.16 -5188.45)"/><path class="cls-2" d="M542.65,5238.53a2.58,2.58,0,0,0-1.45,2.76h-0.92a3.54,3.54,0,0,1,2-3.57,2.6,2.6,0,0,0,1.27-2.28,2.34,2.34,0,0,0-2.56-2.38,2.57,2.57,0,0,0-2.86,2.81h-1a3.56,3.56,0,0,1,3.83-3.71,3.68,3.68,0,0,1,2.65,1,3.09,3.09,0,0,1,.9,2.19A3.61,3.61,0,0,1,542.65,5238.53ZM540,5245v-1.38h1.4V5245H540Z" transform="translate(-307.16 -5188.45)"/></svg>