<svg id="Layer_1" data-name="Layer 1" xmlns="http://www.w3.org/2000/svg" viewBox="0 0 1281 345"><defs><style>.cls-1{opacity:0.28;}.cls-2,.cls-3{fill:none;stroke:#fff;stroke-miterlimit:10;}.cls-3{stroke-dasharray:2 2;}</style></defs><title>2</title><g id="_Group_" data-name="&lt;Group&gt;" class="cls-1"><line class="cls-2" x1="83.5" x2="83.5" y2="1"/><line class="cls-3" x1="83.5" y1="3" x2="83.5" y2="343"/><line class="cls-2" x1="83.5" y1="344" x2="83.5" y2="345"/></g><g id="_Group_2" data-name="&lt;Group&gt;" class="cls-1"><line class="cls-2" x1="160.5" x2="160.5" y2="1"/><line class="cls-3" x1="160.5" y1="3" x2="160.5" y2="343"/><line class="cls-2" x1="160.5" y1="344" x2="160.5" y2="345"/></g><g id="_Group_3" data-name="&lt;Group&gt;" class="cls-1"><line class="cls-2" x1="237.5" x2="237.5" y2="1"/><line class="cls-3" x1="237.5" y1="3" x2="237.5" y2="343"/><line class="cls-2" x1="237.5" y1="344" x2="237.5" y2="345"/></g><g id="_Group_4" data-name="&lt;Group&gt;" class="cls-1"><line class="cls-2" x1="313.5" x2="313.5" y2="1"/><line class="cls-3" x1="313.5" y1="3" x2="313.5" y2="343"/><line class="cls-2" x1="313.5" y1="344" x2="313.5" y2="345"/></g><g id="_Group_5" data-name="&lt;Group&gt;" class="cls-1"><line class="cls-2" x1="389.5" x2="389.5" y2="1"/><line class="cls-3" x1="389.5" y1="3" x2="389.5" y2="343"/><line class="cls-2" x1="389.5" y1="344" x2="389.5" y2="345"/></g><g id="_Group_6" data-name="&lt;Group&gt;" class="cls-1"><line class="cls-2" x1="464.5" x2="464.5" y2="1"/><line class="cls-3" x1="464.5" y1="3" x2="464.5" y2="343"/><line class="cls-2" x1="464.5" y1="344" x2="464.5" y2="345"/></g><g id="_Group_7" data-name="&lt;Group&gt;" class="cls-1"><line class="cls-2" x1="543.5" x2="543.5" y2="1"/><line class="cls-3" x1="543.5" y1="3" x2="543.5" y2="343"/><line class="cls-2" x1="543.5" y1="344" x2="543.5" y2="345"/></g><g id="_Group_8" data-name="&lt;Group&gt;" class="cls-1"><line class="cls-2" x1="620.5" x2="620.5" y2="1"/><line class="cls-3" x1="620.5" y1="3" x2="620.5" y2="343"/><line class="cls-2" x1="620.5" y1="344" x2="620.5" y2="345"/></g><g id="_Group_9" data-name="&lt;Group&gt;" class="cls-1"><line class="cls-2" x1="697.5" x2="697.5" y2="1"/><line class="cls-3" x1="697.5" y1="3" x2="697.5" y2="343"/><line class="cls-2" x1="697.5" y1="344" x2="697.5" y2="345"/></g><g id="_Group_10" data-name="&lt;Group&gt;" class="cls-1"><line class="cls-2" x1="773.5" x2="773.5" y2="1"/><line class="cls-3" x1="773.5" y1="3" x2="773.5" y2="343"/><line class="cls-2" x1="773.5" y1="344" x2="773.5" y2="345"/></g><g id="_Group_11" data-name="&lt;Group&gt;" class="cls-1"><line class="cls-2" x1="849.5" x2="849.5" y2="1"/><line class="cls-3" x1="849.5" y1="3" x2="849.5" y2="343"/><line class="cls-2" x1="849.5" y1="344" x2="849.5" y2="345"/></g><g id="_Group_12" data-name="&lt;Group&gt;" class="cls-1"><line class="cls-2" x1="924.5" x2="924.5" y2="1"/><line class="cls-3" x1="924.5" y1="3" x2="924.5" y2="343"/><line class="cls-2" x1="924.5" y1="344" x2="924.5" y2="345"/></g><g id="_Group_13" data-name="&lt;Group&gt;" class="cls-1"><line class="cls-2" x1="1008.5" x2="1008.5" y2="1"/><line class="cls-3" x1="1008.5" y1="3" x2="1008.5" y2="343"/><line class="cls-2" x1="1008.5" y1="344" x2="1008.5" y2="345"/></g><g id="_Group_14" data-name="&lt;Group&gt;" class="cls-1"><line class="cls-2" x1="1084.5" x2="1084.5" y2="1"/><line class="cls-3" x1="1084.5" y1="3" x2="1084.5" y2="343"/><line class="cls-2" x1="1084.5" y1="344" x2="1084.5" y2="345"/></g><g id="_Group_15" data-name="&lt;Group&gt;" class="cls-1"><line class="cls-2" x1="1159.5" x2="1159.5" y2="1"/><line class="cls-3" x1="1159.5" y1="3" x2="1159.5" y2="343"/><line class="cls-2" x1="1159.5" y1="344" x2="1159.5" y2="345"/></g><g id="_Group_16" data-name="&lt;Group&gt;" class="cls-1"><line class="cls-2" x1="1281" y1="308.5" x2="1280" y2="308.5"/><line class="cls-3" x1="1278" y1="308.5" x2="2" y2="308.5"/><line class="cls-2" x1="1" y1="308.5" y2="308.5"/></g><g id="_Group_17" data-name="&lt;Group&gt;" class="cls-1"><line class="cls-2" x1="1281" y1="270.5" x2="1280" y2="270.5"/><line class="cls-3" x1="1278" y1="270.5" x2="2" y2="270.5"/><line class="cls-2" x1="1" y1="270.5" y2="270.5"/></g><g id="_Group_18" data-name="&lt;Group&gt;" class="cls-1"><line class="cls-2" x1="1281" y1="231.5" x2="1280" y2="231.5"/><line class="cls-3" x1="1278" y1="231.5" x2="2" y2="231.5"/><line class="cls-2" x1="1" y1="231.5" y2="231.5"/></g><g id="_Group_19" data-name="&lt;Group&gt;" class="cls-1"><line class="cls-2" x1="1281" y1="188.5" x2="1280" y2="188.5"/><line class="cls-3" x1="1278" y1="188.5" x2="2" y2="188.5"/><line class="cls-2" x1="1" y1="188.5" y2="188.5"/></g><g id="_Group_20" data-name="&lt;Group&gt;" class="cls-1"><line class="cls-2" x1="1281" y1="151.5" x2="1280" y2="151.5"/><line class="cls-3" x1="1278" y1="151.5" x2="2" y2="151.5"/><line class="cls-2" x1="1" y1="151.5" y2="151.5"/></g><g id="_Group_21" data-name="&lt;Group&gt;" class="cls-1"><line class="cls-2" x1="1281" y1="113.5" x2="1280" y2="113.5"/><line class="cls-3" x1="1278" y1="113.5" x2="2" y2="113.5"/><line class="cls-2" x1="1" y1="113.5" y2="113.5"/></g><g id="_Group_22" data-name="&lt;Group&gt;" class="cls-1"><line class="cls-2" x1="1281" y1="74.5" x2="1280" y2="74.5"/><line class="cls-3" x1="1278" y1="74.5" x2="2" y2="74.5"/><line class="cls-2" x1="1" y1="74.5" y2="74.5"/></g><g id="_Group_23" data-name="&lt;Group&gt;" class="cls-1"><line class="cls-2" x1="1281" y1="31.5" x2="1280" y2="31.5"/><line class="cls-3" x1="1278" y1="31.5" x2="2" y2="31.5"/><line class="cls-2" x1="1" y1="31.5" y2="31.5"/></g></svg>