<svg id="Layer_1" data-name="Layer 1" xmlns="http://www.w3.org/2000/svg" viewBox="0 0 33.3 33.3"><defs><style>.cls-1{fill:#1da1f2;}.cls-2{fill:#fff;}</style></defs><title>tweet</title><g id="_Group_" data-name="&lt;Group&gt;"><rect id="_Path_" data-name="&lt;Path&gt;" class="cls-1" width="33.3" height="33.3" rx="6.84" ry="6.84"/><path id="_Path_2" data-name="&lt;Path&gt;" class="cls-2" d="M5411.88,8366a13.45,13.45,0,0,0,13.54-13.54c0-.21,0-0.41,0-0.61a9.65,9.65,0,0,0,2.37-2.46,9.53,9.53,0,0,1-2.73.75,4.79,4.79,0,0,0,2.09-2.63,9.58,9.58,0,0,1-3,1.16,4.76,4.76,0,0,0-8.23,3.25,4.86,4.86,0,0,0,.12,1.09,13.52,13.52,0,0,1-9.81-5,4.76,4.76,0,0,0,1.47,6.35,4.72,4.72,0,0,1-2.16-.6s0,0,0,.06a4.76,4.76,0,0,0,3.82,4.66,4.77,4.77,0,0,1-1.25.17,4.7,4.7,0,0,1-.89-0.09,4.76,4.76,0,0,0,4.44,3.31,9.54,9.54,0,0,1-5.91,2,9.65,9.65,0,0,1-1.13-.07,13.46,13.46,0,0,0,7.29,2.14" transform="translate(-5399.2 -8339.68)"/></g></svg>